<svg xmlns="http://www.w3.org/2000/svg" height="48" viewBox="0 -960 960 960" width="48"><path d="m480-575-51-51 68-68H324v-73h173l-67-67 50-51 155 155-155 155ZM282.708-70Q250-70 227-93.292t-23-56Q204-182 227.292-205t56-23Q316-228 339-204.708t23 56Q362-116 338.708-93t-56 23Zm415 0Q665-70 642-93.292t-23-56Q619-182 642.292-205t56-23Q731-228 754-204.708t23 56Q777-116 753.708-93t-56 23ZM44-822v-73h127l175 372h290.706L800-810h82L710-490q-11.057 20.095-30.48 33.048Q660.097-444 637-444H328l-50 92h499v73H276q-41.663 0-62.332-33Q193-345 211-380l62-116-148-326H44Z"/></svg>